<svg xmlns="http://www.w3.org/2000/svg" viewBox="0 0 222.3 48" width="222.3" height="48">
  <path transform="translate(8,36) scale(0.02800000,-0.02800000)" d="M293 0 20 647H167L398 74L355 73L575 647H728L948 73L905 74L1136 647H1280L1010 0H847L631 561H673L456 0Z" fill="white"/>
  <path transform="translate(44.4,36) scale(0.02800000,-0.02800000)" d="M353 -12Q259 -12 187.5 18.0Q116 48 76.0 105.5Q36 163 36 247Q36 331 76.0 389.5Q116 448 187.5 478.0Q259 508 353 508Q447 508 517.5 478.0Q588 448 628.0 389.5Q668 331 668 247Q668 163 628.0 105.5Q588 48 517.5 18.0Q447 -12 353 -12ZM353 88Q405 88 446.5 106.5Q488 125 512.0 160.5Q536 196 536 247Q536 298 512.0 334.5Q488 371 447.0 390.0Q406 409 353 409Q301 409 259.0 390.0Q217 371 192.5 335.0Q168 299 168 247Q168 196 192.0 160.5Q216 125 258.0 106.5Q300 88 353 88Z" fill="white"/>
  <path transform="translate(64.112,36) scale(0.02800000,-0.02800000)" d="M60 497H190V0H60ZM381 390Q325 390 284.0 368.5Q243 347 218.0 316.0Q193 285 183 256L182 311Q183 323 190.0 346.5Q197 370 211.0 397.5Q225 425 248.0 450.5Q271 476 304.0 492.0Q337 508 381 508Z" fill="white"/>
  <path transform="translate(75.34,36) scale(0.02800000,-0.02800000)" d="M40 165H160Q171 131 205.5 109.5Q240 88 296 88Q334 88 355.0 95.0Q376 102 384.0 115.5Q392 129 392 146Q392 167 379.0 178.5Q366 190 339.0 197.0Q312 204 270 210Q228 217 189.0 227.0Q150 237 120.0 253.5Q90 270 72.5 295.5Q55 321 55 358Q55 394 72.5 422.0Q90 450 121.5 469.0Q153 488 195.5 498.0Q238 508 287 508Q361 508 410.0 486.5Q459 465 483.5 426.5Q508 388 508 338H393Q385 375 361.0 391.5Q337 408 287 408Q238 408 213.0 393.0Q188 378 188 352Q188 331 203.5 319.5Q219 308 249.5 301.0Q280 294 326 286Q365 278 400.5 268.0Q436 258 464.0 242.5Q492 227 508.5 201.5Q525 176 525 137Q525 89 497.5 56.0Q470 23 419.0 5.5Q368 -12 297 -12Q234 -12 188.5 1.5Q143 15 113.0 36.5Q83 58 66.5 82.5Q50 107 44.0 129.0Q38 151 40 165Z" fill="white"/>
  <path transform="translate(91.132,36) scale(0.02800000,-0.02800000)" d="M514 0V273Q514 314 500.0 341.0Q486 368 455.5 382.0Q425 396 374 396Q325 396 285.0 377.5Q245 359 220.0 329.5Q195 300 192 267L191 322Q196 355 214.0 388.0Q232 421 262.0 448.0Q292 475 334.5 491.5Q377 508 430 508Q476 508 515.0 496.5Q554 485 583.0 461.0Q612 437 628.0 401.5Q644 366 644 318V0ZM69 0V697H199V0Z" fill="white"/>
  <path transform="translate(110.788,36) scale(0.02800000,-0.02800000)" d="M209 715V601H58V715ZM68 497H198V0H68Z" fill="white"/>
  <path transform="translate(118.292,36) scale(0.02800000,-0.02800000)" d="M422 -12Q356 -12 309.5 11.5Q263 35 234.0 73.5Q205 112 191.0 158.0Q177 204 177 248Q177 303 190.5 350.0Q204 397 233.0 432.5Q262 468 308.5 488.0Q355 508 422 508Q497 508 557.0 475.0Q617 442 652.5 383.5Q688 325 688 248Q688 169 652.0 110.5Q616 52 556.0 20.0Q496 -12 422 -12ZM380 89Q433 89 472.5 109.0Q512 129 533.5 164.5Q555 200 555 248Q555 320 509.5 364.0Q464 408 380 408Q327 408 283.5 389.0Q240 370 215.0 334.5Q190 299 190 248Q190 200 213.0 164.5Q236 129 279.0 109.0Q322 89 380 89ZM60 497H184L190 365V-200H60Z" fill="white"/>
  <path transform="translate(138.564,36) scale(0.02800000,-0.02800000)" d="M708 647V536H210V362H618V258H210V0H77V647Z" fill="white"/>
  <path transform="translate(159.312,36) scale(0.02800000,-0.02800000)" d="M70 697H200V0H70Z" fill="white"/>
  <path transform="translate(166.9,36) scale(0.02800000,-0.02800000)" d="M353 -12Q259 -12 187.5 18.0Q116 48 76.0 105.5Q36 163 36 247Q36 331 76.0 389.5Q116 448 187.5 478.0Q259 508 353 508Q447 508 517.5 478.0Q588 448 628.0 389.5Q668 331 668 247Q668 163 628.0 105.5Q588 48 517.5 18.0Q447 -12 353 -12ZM353 88Q405 88 446.5 106.5Q488 125 512.0 160.5Q536 196 536 247Q536 298 512.0 334.5Q488 371 447.0 390.0Q406 409 353 409Q301 409 259.0 390.0Q217 371 192.5 335.0Q168 299 168 247Q168 196 192.0 160.5Q216 125 258.0 106.5Q300 88 353 88Z" fill="white"/>
  <path transform="translate(186.612,36) scale(0.02800000,-0.02800000)" d="M708 90 667 91 829 497H972L753 0H631L471 401H515L350 0H228L15 497H158L314 90H273L419 497H568Z" fill="white"/>
</svg>